PathFileType	4	(X/Y/Z)	C:\Users\86182\Documents\cortex\Trimmed_M3_L2.trc
DataRate	CameraRate	NumFrames	NumMarkers	Units	OrigDataRate	OrigDataStartFrame	OrigNumFrames
100.00	100.00	       112	2	mm	100.00	361	       901
Frame#	Time	gripper			box			
		X1	Y1	Z1	X2	Y2	Z2	

361	3.600	273.64749	149.78358	292.27954	275.46783	147.93555	156.20517	
362	3.610	273.51239	149.75897	292.45801	275.34384	147.92581	156.36082	
363	3.620	273.49213	149.78809	292.63730	275.35977	147.96141	156.48874	
364	3.630	273.47342	149.78169	292.65924	275.27347	147.96873	156.67685	
365	3.640	273.50009	149.80846	292.75165	275.23010	147.92673	156.82343	
366	3.650	273.50494	149.81198	292.81573	275.19904	147.96448	156.94946	
367	3.660	273.48502	149.81332	292.82690	275.15048	147.94519	157.04047	
368	3.670	273.41760	149.84760	292.91858	274.96811	147.95135	157.19221	
369	3.680	273.37646	149.87401	293.03241	274.80792	147.97169	157.30658	
370	3.690	273.42862	149.89218	293.07141	274.88058	147.98340	157.34637	
371	3.700	273.45428	149.89812	293.11758	275.04828	148.03978	157.40970	
372	3.710	273.48230	149.96616	293.21411	275.04828	148.03978	157.40970	
373	3.720	273.42346	149.94083	293.27658	275.07242	148.05176	157.41917	
374	3.730	273.43137	149.91145	293.28824	275.10950	148.06131	157.45956	
375	3.740	273.45755	149.93742	293.28104	275.13504	148.05278	157.47879	
376	3.750	273.44794	149.90794	293.30557	275.14755	148.04858	157.48819	
377	3.760	273.44617	149.91362	293.30093	275.14963	148.05589	157.50323	
378	3.770	273.45175	149.89502	293.29724	275.14630	148.04427	157.47928	
379	3.780	273.47406	149.89343	293.27335	275.15216	148.04965	157.46910	
380	3.790	273.50504	149.88869	293.23431	275.14426	148.03709	157.46454	
381	3.800	273.49774	149.89986	293.24292	275.14191	148.01974	157.46571	
382	3.810	273.48584	149.89061	293.25345	275.09698	148.00833	157.47487	
383	3.820	273.51218	149.90637	293.23907	275.12027	148.02429	157.46356	
384	3.830	273.50357	149.88545	293.23386	275.12970	148.04346	157.45610	
385	3.840	273.46909	149.87495	293.26303	275.15164	148.04156	157.46358	
386	3.850	273.48996	149.89772	293.25897	275.14185	148.01773	157.46890	
387	3.860	273.48428	149.87549	293.23492	275.15903	148.04599	157.46265	
388	3.870	273.45993	149.85274	293.18954	275.08469	148.01167	157.45541	
389	3.880	273.44974	149.85365	293.11740	274.89810	147.94568	157.40701	
390	3.890	273.43918	149.84111	293.12317	274.79083	147.87794	157.33150	
391	3.900	273.40518	149.81155	292.99258	274.88263	147.79929	157.25169	
392	3.910	273.30832	149.78297	292.92096	274.95737	147.76433	157.13124	
393	3.920	273.36597	149.80305	292.89148	274.92783	147.70750	157.09894	
394	3.930	273.34778	149.80026	292.90186	274.96786	147.69922	157.08049	
395	3.940	273.42484	149.81419	292.86551	275.00211	147.69505	157.06146	
396	3.950	273.41672	149.81386	292.87140	275.04160	147.68237	157.04831	
397	3.960	273.35529	149.81473	292.89600	274.94382	147.70081	157.09535	
398	3.970	273.31781	149.79820	292.91577	275.05765	147.73845	157.09076	
399	3.980	273.33261	149.77716	292.91354	274.98917	147.74568	157.13008	
400	3.990	273.38174	149.76399	292.90948	274.99881	147.74161	157.13283	
401	4.000	273.42056	149.77141	292.93475	275.10355	147.72395	157.11819	
402	4.010	273.40906	149.76236	292.90656	275.12820	147.71808	157.10770	
403	4.020	273.40714	149.75499	292.89734	275.14731	147.70058	157.07111	
404	4.030	273.40714	149.75499	292.89734	275.17886	147.69772	157.05246	
405	4.040	273.41852	149.78043	292.88467	275.12482	147.68100	157.04747	
406	4.050	273.41312	149.79958	292.88034	275.06308	147.66422	157.05376	
407	4.060	273.42035	149.77689	292.88574	275.07117	147.66870	157.04312	
408	4.070	273.41495	149.77367	292.88812	275.06528	147.66983	157.04596	
409	4.080	273.39771	149.78650	292.88632	275.03406	147.67883	157.06244	
410	4.090	273.38956	149.76649	292.89774	275.04279	147.69632	157.07697	
411	4.100	273.37903	149.76102	292.90695	275.07751	147.72763	157.08913	
412	4.110	273.38251	149.76027	292.90576	275.04498	147.74342	157.12750	
413	4.120	273.39291	149.76872	292.91684	275.09537	147.73079	157.12091	
414	4.130	273.37042	149.76723	292.90933	275.06030	147.72353	157.10564	
415	4.140	273.40347	149.78433	292.89172	275.10083	147.71954	157.08203	
416	4.150	273.40259	149.75694	292.89746	275.04526	147.69017	157.07710	
417	4.160	273.39401	149.77841	292.89200	274.97815	147.68781	157.08614	
418	4.170	273.39355	149.79703	292.88528	274.96790	147.69197	157.08858	
419	4.180	273.37399	149.79422	292.89352	275.02826	147.68242	157.05748	
420	4.190	273.40182	149.78947	292.88510	274.98340	147.69122	157.07869	
421	4.200	273.40155	149.76566	292.89407	275.05612	147.67207	157.04977	
422	4.210	273.43216	149.77461	292.88434	275.04578	147.68935	157.06761	
423	4.220	273.42331	149.76465	292.89017	275.11880	147.71571	157.07388	
424	4.230	273.41522	149.75983	292.89374	275.14334	147.71696	157.08904	
425	4.240	273.41794	149.76144	292.89255	275.15018	147.69214	157.06198	
426	4.250	273.43402	149.77104	292.88541	275.11636	147.70023	157.06734	
427	4.260	273.40839	149.76274	292.89392	275.05905	147.69905	157.07278	
428	4.270	273.39322	149.78841	292.88644	275.02460	147.68973	157.07684	
429	4.280	273.40619	149.79387	292.88165	275.09189	147.69783	157.05142	
430	4.290	273.42929	149.80307	292.87329	275.05688	147.67545	157.04546	
431	4.300	273.38477	149.79478	292.88553	275.03583	147.68114	157.05368	
432	4.310	273.38477	149.79478	292.88553	274.98032	147.69099	157.08109	
433	4.320	273.35858	149.78206	292.90396	274.94516	147.69615	157.09966	
434	4.330	273.42441	149.77960	292.88788	275.04016	147.70024	157.07439	
435	4.340	273.36157	149.76477	292.91293	275.02258	147.70032	157.09560	
436	4.350	273.37903	149.76102	292.90695	275.04947	147.71646	157.09969	
437	4.360	273.40714	149.75499	292.89734	275.00592	147.71800	157.10863	
438	4.370	273.37802	149.76221	292.90585	275.07761	147.70641	157.07704	
439	4.380	273.38647	149.76231	292.90009	275.03217	147.67287	157.06546	
440	4.390	273.41003	149.77307	292.88937	275.03024	147.67551	157.06384	
441	4.400	273.41495	149.77367	292.88812	275.07501	147.66646	157.04298	
442	4.410	273.41580	149.77881	292.88586	275.06271	147.66473	157.05342	
443	4.420	273.40103	149.77692	292.88959	275.07806	147.66086	157.04712	
444	4.430	273.42761	149.77655	292.88443	275.08435	147.65416	157.05026	
445	4.440	273.42059	149.76303	292.89136	275.12070	147.66766	157.04501	
446	4.450	273.40714	149.75499	292.89734	275.14633	147.68407	157.04428	
447	4.460	273.37201	149.76253	292.90936	275.16788	147.69890	157.05875	
448	4.470	273.40714	149.75499	292.89734	275.11267	147.69682	157.07823	
449	4.480	273.40714	149.75499	292.89734	275.11362	147.68515	157.07085	
450	4.490	273.40030	149.75792	292.89749	275.10040	147.68378	157.06627	
451	4.500	273.41833	149.76401	292.89142	275.05081	147.67754	157.06734	
452	4.510	273.44547	149.78256	292.87842	275.03931	147.66872	157.06517	
453	4.520	273.40671	149.75993	292.89621	275.07831	147.67494	157.05620	
454	4.530	273.39294	149.77208	292.89316	275.05594	147.66759	157.05493	
455	4.540	273.42490	149.77493	292.88562	275.05698	147.67221	157.06400	
456	4.550	273.39383	149.76340	292.89655	275.11792	147.69829	157.06335	
457	4.560	273.42719	149.77397	292.88559	275.08289	147.68996	157.06647	
458	4.570	273.41684	149.77762	292.88696	275.14548	147.69507	157.05806	
459	4.580	273.40714	149.75499	292.89734	275.12015	147.70221	157.06761	
460	4.590	273.41266	149.77464	292.88818	275.14838	147.70558	157.06476	
461	4.600	273.42102	149.76563	292.89023	275.15927	147.70250	157.06068	
462	4.610	273.42603	149.76627	292.88898	275.16788	147.69890	157.05875	
463	4.620	273.43402	149.77104	292.88541	275.11816	147.68987	157.06241	
464	4.630	273.43768	149.77896	292.88309	275.14648	147.71146	157.05951	
465	4.640	273.43674	149.77266	292.88422	275.10623	147.67819	157.05334	
466	4.650	273.39328	149.77466	292.89206	275.11493	147.69098	157.06340	
467	4.660	273.45270	149.78221	292.87714	275.12570	147.69379	157.06299	
468	4.670	273.40903	149.78169	292.88602	275.10178	147.69550	157.06746	
469	4.680	273.40381	149.76468	292.89401	275.11121	147.71780	157.07681	
470	4.690	273.41495	149.77367	292.88812	275.12112	147.71442	157.07376	
471	4.700	273.40924	149.76767	292.89496	275.09048	147.71727	157.09177	
472	4.710	273.44055	149.78197	292.87964	275.07657	147.71388	157.07959	
